<svg width="200" height="200" viewBox="0 0 200 200" fill="none" xmlns="http://www.w3.org/2000/svg">
  <!-- Background Circle -->
  <circle cx="100" cy="100" r="90" fill="#E6F2FF" />
  
  <!-- Charging Station Icon -->
  <path d="M100 30C82.3 30 68 44.3 68 62V138C68 155.7 82.3 170 100 170C117.7 170 132 155.7 132 138V62C132 44.3 117.7 30 100 30ZM120 138C120 149.1 111.1 158 100 158C88.9 158 80 149.1 80 138V62C80 50.9 88.9 42 100 42C111.1 42 120 50.9 120 62V138Z" fill="#3498DB" />
  
  <!-- Lightning Bolt -->
  <path d="M110 80H100L90 120H100L90 150L120 105H105L110 80Z" fill="#F1C40F" />
  
  <!-- Car Silhouette -->
  <path d="M150 110H140C138.9 110 138 110.9 138 112V118C138 119.1 138.9 120 140 120H150C151.1 120 152 119.1 152 118V112C152 110.9 151.1 110 150 110Z" fill="#3498DB" />
  <path d="M160 100H130C128.3 100 127 101.3 127 103L125 115C125 116.7 126.3 118 128 118H162C163.7 118 165 116.7 165 115L163 103C163 101.3 161.7 100 160 100Z" fill="#3498DB" />
  <circle cx="133" cy="120" r="5" fill="#2C3E50" />
  <circle cx="157" cy="120" r="5" fill="#2C3E50" />
</svg>